<?xml version="1.0" encoding="UTF-8"?>
<svg xmlns="http://www.w3.org/2000/svg" viewBox="0 0 500 500">
  <defs>
    <style>
      .cls-1 {
        fill: #92220f;
      }

      .cls-1, .cls-2, .cls-3 {
        stroke-width: 0px;
      }

      .cls-4 {
        letter-spacing: 0em;
      }

      .cls-5 {
        font-size: 16px;
      }

      .cls-5, .cls-6 {
        font-family: Montserrat-Regular, Montserrat;
      }

      .cls-2, .cls-6 {
        fill: #fff;
      }

      .cls-3, .cls-7 {
        fill: #183041;
      }

      .cls-8 {
        letter-spacing: 0em;
      }

      .cls-9 {
        letter-spacing: 0em;
      }

      .cls-10 {
        letter-spacing: -.02em;
      }

      .cls-7 {
        font-family: Montserrat-ExtraBold, Montserrat;
        font-size: 41px;
        font-weight: 700;
      }

      .cls-6 {
        font-size: 11px;
      }
    </style>
  </defs>
  <g id="BACKGROUND">
    <rect class="cls-2" width="500" height="500"/>
  </g>
  <g id="OBJECTS">
    <g>
      <g>
        <path class="cls-1" d="m234.03,235.87c-7.91-9.78-18.36-17.16-26.98-26.33-8.61-9.16-15.6-21.26-13.91-33.72-5.78,2.33-10.17,7.16-11.18,13.31-1.01,6.15.54,12.5,3.26,18.12,2.23,4.6,5.2,8.78,8.29,12.85,1.18,1.56,1.15,3.7-.02,5.26-.02.02-.03.04-.05.06-1.38,1.85-3.99,2.27-5.91.99-11.68-7.75-23.32-14.73-35.57-21.73-6.02-3.44-12.83-6.83-19.52-7.02-2.89-.08-3.89,3.88-1.39,5.35l46.65,27.4-55.96-26.41c-1.53-.72-3.4-.29-4.37,1.1-.01.02-.03.04-.04.06-1.19,1.71-.72,4.07,1.07,5.13l48.78,28.64-47.94-22.62c-2.75-1.3-6.02.79-5.79,3.82v.08c.11,1.27.89,2.39,1.99,3.03l41.22,24.21-36.24-17.1c-1.83-.86-3.65,1.19-2.6,2.91,2.91,4.79,7.05,8.93,11.74,12.02,8.84,5.8,19.45,8.31,29.95,9.53,10.5,1.22,21.12,1.25,31.61,2.63,17.84,2.34,36.38,3.8,51.59,13.41,4.4-11.78-.77-25.2-8.68-34.98Z"/>
        <path class="cls-1" d="m240.96,273.2c-13.05-7.21-28.62-8.01-43.52-7.56-14.9.45-30.01,1.97-44.58-1.2,3.84,6.6,11.25,11.03,18.69,12.79,7.44,1.75,15.23,1.23,22.77.02s14.97-3.1,22.55-4.09c7.58-.99,16.84-2.38,24.09.04Z"/>
      </g>
      <g>
        <path class="cls-1" d="m265.97,235.87c7.91-9.78,18.36-17.16,26.98-26.33,8.61-9.16,15.6-21.26,13.91-33.72,5.78,2.33,10.17,7.16,11.18,13.31,1.01,6.15-.54,12.5-3.26,18.12-2.23,4.6-5.2,8.78-8.29,12.85-1.18,1.56-1.15,3.7.02,5.26.02.02.03.04.05.06,1.38,1.85,3.99,2.27,5.91.99,11.68-7.75,23.32-14.73,35.57-21.73,6.02-3.44,12.83-6.83,19.52-7.02,2.89-.08,3.89,3.88,1.39,5.35l-46.65,27.4,55.96-26.41c1.53-.72,3.4-.29,4.37,1.1.01.02.03.04.04.06,1.19,1.71.72,4.07-1.07,5.13l-48.78,28.64,47.94-22.62c2.75-1.3,6.02.79,5.79,3.82,0,.03,0,.06,0,.08-.1,1.27-.88,2.39-1.98,3.03l-41.22,24.21,36.24-17.1c1.83-.86,3.65,1.19,2.6,2.91-2.91,4.79-7.05,8.93-11.74,12.02-8.84,5.8-19.45,8.31-29.95,9.53-10.5,1.22-21.12,1.25-31.61,2.63-17.84,2.34-36.38,3.8-51.59,13.41-4.4-11.78.77-25.2,8.68-34.98Z"/>
        <path class="cls-1" d="m259.04,273.2c13.05-7.21,28.62-8.01,43.52-7.56,14.9.45,30.01,1.97,44.58-1.2-3.84,6.6-11.25,11.03-18.69,12.79-7.44,1.75-15.23,1.23-22.77.02-7.54-1.21-14.97-3.1-22.55-4.09-7.58-.99-16.84-2.38-24.09.04Z"/>
      </g>
    </g>
    <g>
      <path class="cls-1" d="m140.44,335.39l1.9,3.62c.37.69,1.03,1.18,1.81,1.31l4.03.69c2,.34,2.8,2.79,1.38,4.25l-2.85,2.93c-.55.56-.8,1.35-.69,2.12l.59,4.05c.29,2.01-1.79,3.53-3.61,2.63l-3.67-1.81c-.7-.35-1.53-.35-2.23,0l-3.67,1.81c-1.82.9-3.91-.61-3.61-2.63l.59-4.05c.11-.78-.14-1.56-.69-2.12l-2.85-2.93c-1.42-1.46-.62-3.9,1.38-4.25l4.03-.69c.77-.13,1.44-.62,1.81-1.31l1.9-3.62c.95-1.8,3.52-1.8,4.47,0Z"/>
      <path class="cls-1" d="m359.77,335.39l1.9,3.62c.37.69,1.03,1.18,1.81,1.31l4.03.69c2,.34,2.8,2.79,1.38,4.25l-2.85,2.93c-.55.56-.8,1.35-.69,2.12l.59,4.05c.29,2.01-1.79,3.53-3.61,2.63l-3.67-1.81c-.7-.35-1.53-.35-2.23,0l-3.67,1.81c-1.82.9-3.91-.61-3.61-2.63l.59-4.05c.11-.78-.14-1.56-.69-2.12l-2.85-2.93c-1.42-1.46-.62-3.9,1.38-4.25l4.03-.69c.77-.13,1.44-.62,1.81-1.31l1.9-3.62c.95-1.8,3.52-1.8,4.47,0Z"/>
    </g>
    <path class="cls-1" d="m254.76,160.63l4.06,7.72c.78,1.48,2.2,2.52,3.85,2.8l8.6,1.47c4.27.73,5.97,5.96,2.94,9.06l-6.09,6.24c-1.17,1.2-1.71,2.87-1.47,4.53l1.25,8.63c.62,4.29-3.82,7.52-7.71,5.6l-7.82-3.86c-1.5-.74-3.26-.74-4.76,0l-7.82,3.86c-3.89,1.92-8.33-1.31-7.71-5.6l1.25-8.63c.24-1.66-.3-3.33-1.47-4.53l-6.09-6.24c-3.03-3.1-1.33-8.33,2.94-9.06l8.6-1.47c1.65-.28,3.07-1.32,3.85-2.8l4.06-7.72c2.02-3.84,7.51-3.84,9.53,0Z"/>
    <path class="cls-3" d="m139.44,189.24c-.28,0-.57-.05-.85-.15-1.3-.47-1.97-1.9-1.5-3.2,17.13-47.38,62.51-79.21,112.91-79.21s95.77,31.83,112.91,79.21c.47,1.3-.2,2.73-1.5,3.2-1.3.47-2.73-.2-3.2-1.5-16.42-45.4-59.9-75.91-108.21-75.91s-91.79,30.51-108.21,75.91c-.37,1.02-1.33,1.65-2.35,1.65Z"/>
  </g>
  <g id="TEXTS">
    <text class="cls-7" transform="translate(161.89 335.2)"><tspan x="0" y="0">ES</tspan><tspan class="cls-10" x="54.08" y="0">C</tspan><tspan class="cls-4" x="83.72" y="0">O</tspan><tspan class="cls-8" x="118.41" y="0">L</tspan><tspan x="143.74" y="0">A</tspan><tspan x="11.71" y="45">AN</tspan><tspan class="cls-9" x="76.98" y="45">Z</tspan><tspan x="104.57" y="45">OL</tspan></text>
    <text class="cls-6" transform="translate(111.06 278.36)"><tspan x="0" y="0">SINCE</tspan></text>
    <text class="cls-6" transform="translate(363.95 278.36)"><tspan x="0" y="0">1984</tspan></text>
    <text class="cls-5" transform="translate(164.44 182.83) rotate(-59.36)"><tspan x="0" y="0">P</tspan></text>
    <text class="cls-5" transform="translate(170.22 173.31) rotate(-54.71)"><tspan x="0" y="0">I</tspan></text>
    <text class="cls-5" transform="translate(172.7 169.47) rotate(-49.57)"><tspan x="0" y="0">N</tspan></text>
    <text class="cls-5" transform="translate(180.89 159.81) rotate(-42.01)"><tspan x="0" y="0">D</tspan></text>
    <text class="cls-5" transform="translate(190.37 151.31) rotate(-34.97)"><tspan x="0" y="0">A</tspan></text>
    <text class="cls-5" transform="translate(199.39 144.81) rotate(-27.21)"><tspan x="0" y="0">M</tspan></text>
    <text class="cls-5" transform="translate(212.66 138.03) rotate(-18.83)"><tspan x="0" y="0">O</tspan></text>
    <text class="cls-5" transform="translate(225.01 133.81) rotate(-11.12)"><tspan x="0" y="0">N</tspan></text>
    <text class="cls-5" transform="translate(237.42 131.35) rotate(-3.58)"><tspan x="0" y="0">H</tspan></text>
    <text class="cls-5" transform="translate(250.09 130.58) rotate(3.42)"><tspan x="0" y="0">A</tspan></text>
    <text class="cls-5" transform="translate(261.22 131.18) rotate(10.51)"><tspan x="0" y="0">N</tspan></text>
    <text class="cls-5" transform="translate(273.67 133.49) rotate(17.92)"><tspan x="0" y="0">G</tspan></text>
    <text class="cls-5" transform="translate(285.12 137.19) rotate(24.88)"><tspan x="0" y="0">A</tspan></text>
    <text class="cls-5" transform="translate(295.26 141.86) rotate(31.73)"><tspan x="0" y="0">B</tspan></text>
    <text class="cls-5" transform="translate(305.24 148.03) rotate(38.53)"><tspan x="0" y="0">A</tspan></text>
    <text class="cls-5" transform="translate(313.97 155.15) rotate(43.06)"><tspan x="0" y="0"> </tspan></text>
    <text class="cls-5" transform="translate(316.94 157.88) rotate(46.11)"><tspan x="0" y="0">-</tspan></text>
    <text class="cls-5" transform="translate(321.29 162.44) rotate(49.19)"><tspan x="0" y="0"> </tspan></text>
    <text class="cls-5" transform="translate(323.98 165.39) rotate(53.23)"><tspan x="0" y="0">S</tspan></text>
    <text class="cls-5" transform="translate(329.74 173) rotate(59.41)"><tspan x="0" y="0">P</tspan></text>
    <g>
      <path class="cls-3" d="m251.39,197.18s2.04-4.72,3.3-7.21c1.25-2.49.65-6.99-2.62-8.94-3.28-1.95-7.37-.12-6.47,4.5.9,4.63,3.63,7.75,5.8,11.64m-30.84,55.09c-2.78-2.55-5.5-4.2-5.5-4.2-2.15,13.85,19.66,30.32,30.56,17.25,3.84-4.6,5.25-11.91,5.46-19.9.22-8.31-1.9-35.61-4.35-44.37-1.72-6.15-5.38-9.72-5.77-16.22-.5-8.32,10.3-11.18,15.92-4.12,5.61,7.06-.56,11.55-.76,19.19-.35,13.71.71,25.67,1.54,39.22.48,7.8.52,15.33-1.07,19.64-2.36,6.38-7.21,11.49-14.12,13.91-11.51,4.03-26.73-5.02-30.42-18.87-3.7-13.86,1.46-24.37,1.46-24.37,0,0-.89,8.05,7.04,22.84Z"/>
      <path class="cls-3" d="m220.1,268.85c12.41,13.2,33.96,9.03,38.91-6.88,2.18-7,2.43-17.29-.4-32.53.2,3.19.42,6.38.61,9.58.35,5.72.83,14.9-1.16,20.28-2.61,7.05-7.95,12.35-15.07,14.84-6.52,2.28-13.73.65-19.48-2.87-1.19-.73-2.33-1.54-3.4-2.43"/>
    </g>
  </g>
</svg>